HIERARCHY
ROOT SpineBase
{
  OFFSET 0.000000 0.000000 0.000000
  CHANNELS 6 Xposition Yposition Zposition Zrotation Xrotation Yrotation
  JOINT SpineMid
  {
    OFFSET 0.000000 31.886124 0.000000
    CHANNELS 3 Zrotation Xrotation Yrotation
    JOINT SpineShoulder
    {
      OFFSET 0.064733 23.734414 -0.874075
      CHANNELS 3 Zrotation Xrotation Yrotation
      JOINT Neck
      {
        OFFSET 0.061046 7.849989 -0.625126
        CHANNELS 3 Zrotation Xrotation Yrotation
        JOINT Head
        {
          OFFSET -4.975742 14.433293 -0.889152
          CHANNELS 3 Zrotation Xrotation Yrotation
          End Site
          {
            OFFSET 0 0 0
          }
        }
      }
      JOINT ShoulderLeft
      {
        OFFSET -17.299854 -5.988307 6.678670
        CHANNELS 3 Zrotation Xrotation Yrotation
        JOINT ElbowLeft
        {
          OFFSET -1.700226 -28.560869 4.424564
          CHANNELS 3 Zrotation Xrotation Yrotation
          JOINT WristLeft
          {
            OFFSET 0.686461 -21.843008 -5.279741
            CHANNELS 3 Zrotation Xrotation Yrotation
            JOINT HandLeft
            {
              OFFSET 0.660649 -4.572065 -2.262163
              CHANNELS 3 Zrotation Xrotation Yrotation
              JOINT HandTipLeft
              {
                OFFSET -0.952893 -6.163145 -0.722905
                CHANNELS 3 Zrotation Xrotation Yrotation
                End Site
                {
                  OFFSET 0 0 0
                }
              }
              JOINT ThumbLeft
              {
                OFFSET 3.648010 1.526553 -3.307563
                CHANNELS 3 Zrotation Xrotation Yrotation
                End Site
                {
                  OFFSET 0 0 0
                }
              }
            }
          }
        }
      }
      JOINT ShoulderRight
      {
        OFFSET 14.615494 -3.433182 -8.261780
        CHANNELS 3 Zrotation Xrotation Yrotation
        JOINT ElbowRight
        {
          OFFSET 7.765640 -26.732794 -2.158963
          CHANNELS 3 Zrotation Xrotation Yrotation
          JOINT WristRight
          {
            OFFSET 0.728181 -22.642416 -6.126698
            CHANNELS 3 Zrotation Xrotation Yrotation
            JOINT HandRight
            {
              OFFSET -1.028739 -6.991893 -0.217372
              CHANNELS 3 Zrotation Xrotation Yrotation
              JOINT HandTipRight
              {
                OFFSET 0.070100 -6.340186 -1.133026
                CHANNELS 3 Zrotation Xrotation Yrotation
                End Site
                {
                  OFFSET 0 0 0
                }
              }
              JOINT ThumbRight
              {
                OFFSET 3.411040 -2.005288 -1.559550
                CHANNELS 3 Zrotation Xrotation Yrotation
                End Site
                {
                  OFFSET 0 0 0
                }
              }
            }
          }
        }
      }
    }
  }
  JOINT HipLeft
  {
    OFFSET -6.688371 0.106260 -0.873096
    CHANNELS 3 Zrotation Xrotation Yrotation
    JOINT KneeLeft
    {
      OFFSET 3.020673 -34.253112 4.752420
      CHANNELS 3 Zrotation Xrotation Yrotation
      JOINT AnkleLeft
      {
        OFFSET 8.527603 -37.286080 6.848536
        CHANNELS 3 Zrotation Xrotation Yrotation
        JOINT FootLeft
        {
          OFFSET -0.051889 -7.605207 -8.435536
          CHANNELS 3 Zrotation Xrotation Yrotation
          End Site
          {
            OFFSET 0 0 0
          }
        }
      }
    }
  }
  JOINT HipRight
  {
    OFFSET 7.350445 1.677500 -6.289550
    CHANNELS 3 Zrotation Xrotation Yrotation
    JOINT KneeRight
    {
      OFFSET 6.543599 -32.067074 1.523932
      CHANNELS 3 Zrotation Xrotation Yrotation
      JOINT AnkleRight
      {
        OFFSET 0.603804 -41.403189 10.162182
        CHANNELS 3 Zrotation Xrotation Yrotation
        JOINT FootRight
        {
          OFFSET 1.011823 -9.857108 -4.047734
          CHANNELS 3 Zrotation Xrotation Yrotation
          End Site
          {
            OFFSET 0 0 0
          }
        }
      }
    }
  }
}
MOTION
Frames: 15
Frame Time: 0.033333
-29.338396 82.888989 342.731968 0.745251 1.248239 18.453183 0.362314 0.163008 -18.426308 0.035207 -0.203354 0.043562 1.194008 5.165360 2.204287 0.000000 0.000000 0.000000 0.174460 -1.657234 0.158728 -6.102962 -5.397570 0.574380 -13.214934 -8.750535 5.671556 28.073256 15.708647 -13.137310 0.000000 0.000000 0.000000 0.000000 0.000000 0.000000 69.130119 40.579727 -18.330162 121.500091 60.556257 160.897603 -31.544310 -3.266568 -127.331188 -17.116333 -17.921219 -4.063603 0.000000 0.000000 0.000000 0.000000 0.000000 0.000000 -1.692141 1.330670 -18.472148 -0.482646 -1.846620 -0.329002 8.010258 -15.041967 -6.615837 0.000000 0.000000 0.000000 -2.183816 2.986540 -17.864040 2.239684 -3.411691 -0.520419 -9.470102 22.058308 7.492894 0.000000 0.000000 0.000000
-29.322311 82.906468 342.732981 0.682798 1.180446 18.341971 0.254225 0.137145 -18.319859 -0.005991 -0.218610 0.033555 0.984936 4.962277 2.095100 0.000000 0.000000 0.000000 0.000305 -1.937487 0.135551 -6.028246 -5.096599 0.699538 -13.139809 -5.772381 6.601789 27.315612 13.888593 -12.717990 0.000000 0.000000 0.000000 0.000000 0.000000 0.000000 71.200916 42.681555 -20.098781 150.655766 42.052367 80.116076 -8.805404 -39.994759 -102.361117 -31.172899 -17.035690 10.512774 0.000000 0.000000 0.000000 0.000000 0.000000 0.000000 -1.651445 1.274254 -18.368615 -0.484246 -1.673046 -0.301490 4.257864 -5.280639 -2.426078 0.000000 0.000000 0.000000 -2.173082 2.995283 -17.761565 2.291605 -3.361540 -0.507200 -14.416417 31.693179 12.100837 0.000000 0.000000 0.000000
-29.301620 82.924644 342.713663 0.618303 1.130445 18.232250 0.148946 0.108550 -18.214993 -0.034414 -0.216767 0.024506 0.832442 4.789351 2.007341 0.000000 0.000000 0.000000 -0.167159 -2.236483 0.112995 -5.864331 -4.573210 0.816955 -11.950221 -2.773003 6.844400 26.294255 12.616002 -12.069938 0.000000 0.000000 0.000000 0.000000 0.000000 0.000000 72.422248 44.540110 -21.412384 153.308347 32.984848 49.797392 26.972279 -48.797404 -72.224917 -43.262254 -21.237665 11.608975 0.000000 0.000000 0.000000 0.000000 0.000000 0.000000 -1.604649 1.206279 -18.265414 -0.538749 -1.554865 -0.297235 2.466289 -1.608686 -0.405483 0.000000 0.000000 0.000000 -2.186772 2.948974 -17.670371 3.501269 -2.622350 -0.136262 -23.653493 38.204092 18.579381 0.000000 0.000000 0.000000
-29.272724 82.940814 342.682209 0.553424 1.096171 18.154864 0.058627 0.083761 -18.142170 -0.042843 -0.198446 0.017571 0.838614 4.659762 1.949681 0.000000 0.000000 0.000000 -0.333135 -2.488177 0.087270 -5.634046 -4.014261 0.913621 -10.441153 -2.010799 6.212266 24.792729 12.513583 -11.297705 0.000000 0.000000 0.000000 0.000000 0.000000 0.000000 73.563157 46.130257 -22.609820 153.647526 32.967440 44.346986 36.563808 -46.910732 -63.249556 -47.614363 -23.094518 9.467489 0.000000 0.000000 0.000000 0.000000 0.000000 0.000000 -1.576257 1.139475 -18.196673 -0.578214 -1.447294 -0.291961 1.879572 -0.230498 0.295110 0.000000 0.000000 0.000000 -2.194923 2.877419 -17.613673 3.891017 -2.145991 -0.015266 -27.118019 38.649547 20.764787 0.000000 0.000000 0.000000
-29.265203 82.946789 342.678891 0.506375 1.048983 18.131439 0.022166 0.093417 -18.121353 -0.025244 -0.162630 0.015245 1.005882 4.695573 1.965024 0.000000 0.000000 0.000000 -0.441140 -2.663561 0.071990 -5.413922 -3.522333 0.959127 -8.372727 -2.313381 4.953088 21.400985 13.493994 -9.919035 0.000000 0.000000 0.000000 0.000000 0.000000 0.000000 74.348034 47.120306 -23.410447 152.269883 43.153334 68.756864 6.624501 -48.408982 -87.419529 -41.522728 -21.118825 6.175239 0.000000 0.000000 0.000000 0.000000 0.000000 0.000000 -1.512172 1.141664 -18.172021 -0.671737 -1.382993 -0.298483 1.959859 -0.269843 0.301602 0.000000 0.000000 0.000000 -2.154179 2.888238 -17.593332 4.343401 -1.706586 0.116805 -28.204810 32.487924 19.494533 0.000000 0.000000 0.000000
-29.282975 82.941179 342.697377 0.483931 1.018536 18.179701 0.010905 0.112213 -18.170857 0.002880 -0.121157 0.015667 1.205586 4.753315 1.998768 0.000000 0.000000 0.000000 -0.404271 -2.660619 0.076202 -5.347264 -3.227903 0.957972 -6.614563 -3.257886 3.728357 19.110639 15.239902 -8.993014 0.000000 0.000000 0.000000 0.000000 0.000000 0.000000 74.657760 47.332362 -23.642366 136.211562 62.402154 125.376787 -29.639331 -24.082939 -117.660300 -29.760768 -17.486870 2.272091 0.000000 0.000000 0.000000 0.000000 0.000000 0.000000 -1.445354 1.177961 -18.213193 -0.757258 -1.351223 -0.303896 2.016285 -0.324718 0.300462 0.000000 0.000000 0.000000 -2.057260 2.940197 -17.629223 4.399136 -1.476444 0.136169 -28.271722 26.535399 17.843200 0.000000 0.000000 0.000000
-29.333502 82.922868 342.742272 0.507483 0.998749 18.313569 0.029921 0.122664 -18.303418 0.030821 -0.093743 0.019549 1.354839 5.018565 2.093809 0.000000 0.000000 0.000000 -0.266299 -2.441413 0.093676 -5.430966 -3.128713 0.918586 -5.155765 -4.217899 2.696325 15.738663 14.841073 -7.324866 0.000000 0.000000 0.000000 0.000000 0.000000 0.000000 74.290745 46.806844 -23.244937 66.465252 63.449637 -121.504628 -38.907774 11.614025 -128.234328 -22.173779 -12.977811 12.432440 0.000000 0.000000 0.000000 0.000000 0.000000 0.000000 -1.371892 1.262121 -18.330756 -0.893987 -1.371277 -0.323483 3.201958 -1.318940 -0.917228 0.000000 0.000000 0.000000 -1.918061 3.046582 -17.734960 4.422367 -1.404523 0.149800 -26.507811 19.885941 14.901137 0.000000 0.000000 0.000000
-29.409937 82.889872 342.806228 0.579566 1.000983 18.515062 0.075339 0.136987 -18.501520 0.059465 -0.070490 0.026496 1.417310 5.329431 2.207048 0.000000 0.000000 0.000000 -0.048862 -2.134462 0.124676 -5.650047 -3.225180 0.842492 -4.787072 -7.541704 1.687965 15.424339 16.103664 -6.805830 0.000000 0.000000 0.000000 0.000000 0.000000 0.000000 73.256559 45.534341 -22.213238 41.626054 44.938491 -72.003503 -25.494994 29.297782 -113.673109 -19.649860 -8.603206 20.448547 0.000000 0.000000 0.000000 0.000000 0.000000 0.000000 -1.329180 1.357730 -18.513242 -1.008429 -1.408117 -0.339054 4.436066 -2.983901 -2.232767 0.000000 0.000000 0.000000 -1.762729 3.173493 -17.899420 4.488481 -1.389209 0.180942 -30.621293 23.498340 18.070687 0.000000 0.000000 0.000000
-29.479327 82.867789 342.858123 0.679391 1.017281 18.769010 0.124182 0.149333 -18.751342 0.088093 -0.043922 0.034645 1.481553 5.712574 2.346650 0.000000 0.000000 0.000000 0.174683 -1.758477 0.152417 -5.863105 -3.465659 0.742670 -4.470642 -9.377419 1.061475 14.964487 18.182984 -6.614247 0.000000 0.000000 0.000000 0.000000 0.000000 0.000000 72.522336 44.826492 -21.592666 33.209843 31.194228 -51.747227 -2.858712 29.392088 -72.856143 -7.479780 3.040942 40.370762 0.000000 0.000000 0.000000 0.000000 0.000000 0.000000 -1.349868 1.445611 -18.754498 -1.067344 -1.463178 -0.351268 6.120717 -5.482625 -4.074485 0.000000 0.000000 0.000000 -1.686394 3.244025 -18.131946 4.397343 -1.580304 0.171145 -33.939550 27.307811 21.217869 0.000000 0.000000 0.000000
-29.547166 82.852281 342.904873 0.790975 1.045962 19.068679 0.170605 0.163512 -19.046926 0.111556 -0.017439 0.042579 1.528193 6.064698 2.479207 0.000000 0.000000 0.000000 0.373159 -1.376513 0.172629 -6.006379 -3.923489 0.620225 -4.994068 -11.076884 0.853151 16.021321 20.367140 -7.227870 0.000000 0.000000 0.000000 0.000000 0.000000 0.000000 71.595746 44.150503 -20.889090 28.007895 20.516123 -39.620868 10.697420 30.862943 -46.911567 6.829483 -2.474000 45.197450 0.000000 0.000000 0.000000 0.000000 0.000000 0.000000 -1.380681 1.529957 -19.041429 -1.087347 -1.498272 -0.349596 9.606641 -12.897679 -8.007913 0.000000 0.000000 0.000000 -1.639908 3.285695 -18.416548 3.997619 -1.999498 0.073831 -30.809106 26.224986 19.216423 0.000000 0.000000 0.000000
-29.607628 82.842762 342.941572 0.898180 1.070930 19.348957 0.207685 0.171566 -19.323507 0.133241 0.006700 0.049898 1.568364 6.433173 2.611345 0.000000 0.000000 0.000000 0.511092 -1.095997 0.187155 -6.115406 -4.360373 0.515469 -6.050673 -12.901157 0.847131 17.258749 23.099811 -8.142594 0.000000 0.000000 0.000000 0.000000 0.000000 0.000000 71.088446 43.690618 -20.493868 25.163272 14.229619 -33.632680 18.432590 28.627803 -25.656886 3.095450 -7.512172 27.308604 0.000000 0.000000 0.000000 0.000000 0.000000 0.000000 -1.425988 1.610363 -19.312309 -1.079572 -1.613442 -0.364311 11.296188 -16.660719 -9.991281 0.000000 0.000000 0.000000 -1.626810 3.311668 -18.688225 4.012464 -2.271846 0.095113 -29.258373 28.557878 18.816824 0.000000 0.000000 0.000000
-29.658479 82.841679 342.968256 0.983998 1.095434 19.588466 0.246499 0.183129 -19.559965 0.153677 0.031637 0.056133 1.584259 6.725370 2.721093 0.000000 0.000000 0.000000 0.593211 -0.916419 0.196302 -6.252011 -4.901706 0.434235 -6.547804 -13.741291 0.827148 17.530624 23.688070 -8.270942 0.000000 0.000000 0.000000 0.000000 0.000000 0.000000 70.357692 43.068174 -19.915158 24.396230 10.729110 -30.533315 18.358984 28.890062 -25.125536 5.634414 -8.468320 29.519155 0.000000 0.000000 0.000000 0.000000 0.000000 0.000000 -1.476914 1.670004 -19.546689 -1.058977 -1.754147 -0.386396 8.368962 -8.320423 -6.704134 0.000000 0.000000 0.000000 -1.633008 3.309200 -18.926024 3.866116 -2.668953 0.067790 -27.777965 32.263034 18.941844 0.000000 0.000000 0.000000
-29.699215 82.843408 342.983273 1.036431 1.099473 19.812862 0.275984 0.185098 -19.782077 0.163498 0.040538 0.060136 1.464172 6.931206 2.788213 0.000000 0.000000 0.000000 0.591168 -0.866535 0.198327 -6.322095 -5.345729 0.388530 -7.360025 -13.562016 1.236118 19.949815 23.808408 -9.563565 0.000000 0.000000 0.000000 0.000000 0.000000 0.000000 69.456593 42.401119 -19.255593 25.543981 11.169160 -30.775494 19.479912 32.916665 -36.483299 5.236816 -6.454391 33.011578 0.000000 0.000000 0.000000 0.000000 0.000000 0.000000 -1.477507 1.737134 -19.763358 -1.023492 -1.927512 -0.411905 4.921229 -1.711273 -2.956926 0.000000 0.000000 0.000000 -1.665821 3.290552 -19.157903 3.772825 -2.926524 0.050373 -23.978230 29.659107 15.936874 0.000000 0.000000 0.000000
-29.725498 82.845210 342.991911 1.042636 1.080890 19.991646 0.292194 0.187364 -19.960018 0.162649 0.042826 0.060893 1.306056 6.971968 2.795947 0.000000 0.000000 0.000000 0.545007 -0.876624 0.192973 -6.379450 -5.769258 0.378663 -8.077020 -13.813476 1.501786 20.436883 25.449718 -10.148175 0.000000 0.000000 0.000000 0.000000 0.000000 0.000000 68.861779 42.042521 -18.854336 29.765657 15.372307 -34.666591 11.831282 39.021637 -69.796612 6.120267 0.030140 52.431469 0.000000 0.000000 0.000000 0.000000 0.000000 0.000000 -1.491906 1.786161 -19.943944 -0.863521 -2.012051 -0.396694 0.099003 5.660441 2.114844 0.000000 0.000000 0.000000 -1.670355 3.286606 -19.343014 3.680334 -3.131492 0.027190 -20.193398 22.653808 12.160085 0.000000 0.000000 0.000000
-29.746332 82.817650 343.008492 1.035745 1.040985 20.064101 0.257639 0.184032 -20.033466 0.143046 0.034718 0.057830 1.127564 6.937299 2.766048 0.000000 0.000000 0.000000 0.551660 -0.944532 0.197391 -6.424077 -6.014221 0.383329 -8.584730 -13.227805 1.916099 20.026290 24.774879 -9.937172 0.000000 0.000000 0.000000 0.000000 0.000000 0.000000 68.471606 41.784020 -18.589735 36.272250 23.335537 -43.566268 -9.138873 50.516443 -125.813512 -3.815689 6.695258 78.595792 0.000000 0.000000 0.000000 0.000000 0.000000 0.000000 -1.517721 1.824856 -20.022573 -0.683527 -2.034664 -0.367108 -7.211883 15.264149 9.716326 0.000000 0.000000 0.000000 -1.674599 3.299093 -19.421444 3.637854 -3.154429 0.015304 -17.076890 9.486565 7.776073 0.000000 0.000000 0.000000
